<?xml version="1.0" encoding="utf-8"?>
<!-- Generator: Adobe Illustrator 23.0.2, SVG Export Plug-In . SVG Version: 6.00 Build 0)  -->
<svg version="1.1" xmlns="http://www.w3.org/2000/svg" xmlns:xlink="http://www.w3.org/1999/xlink" x="0px" y="0px"
	 viewBox="0 0 576.3 165.6" style="enable-background:new 0 0 576.3 165.6;" xml:space="preserve">
<style type="text/css">
	.st0{fill-rule:evenodd;clip-rule:evenodd;fill:#FFFFFF;}
	.st1{fill:#FFFFFF;}
</style>
<g id="Слой_11">
</g>
<g id="Слой_10">
	<g>
		<path class="st0" d="M186.2,83.1c-1-1.1-13.6-7.5-17.1-11c4-10.7,5.9-19.8,5.9-27.3c0-5.9,0-27.2-24.9-27.2
			c-24.8,0-24.8,22.7-24.8,27.2c0,8.8,2.9,18.2,5.9,27.3c-0.8,0.8-1.9,1.6-2.9,2.1c-5.1-3.7-10.4-7.5-15.2-11.7
			c4.3-11,7.2-21.7,7.2-32.6c0-24-15.3-29.1-25-29.8c-0.4,0-0.8,0-1.2-0.1c-0.4,0-0.8,0-1.2,0.1C83,0.8,67.7,5.9,67.7,29.9
			c0,11,2.9,21.6,7.2,32.6c-4.8,4.3-10.1,8-15.2,11.7c-1.1-0.5-2.2-1.3-2.9-2.1c2.9-9.1,5.9-18.4,5.9-27.3c0-4.5,0-27.2-24.8-27.2
			c-24.9,0-24.9,21.4-24.9,27.2c0,7.5,1.9,16.6,5.9,27.3c-3.5,3.5-16,9.9-17.1,11c-1.1,0.8-2.4,4-1.3,7.5c13.1,46.6,50.1,74,92.4,75
			c0.4,0,0.8,0,1.2,0c0.4,0,0.8,0,1.2,0c42.3-1,79.3-28.4,92.3-75C188.6,87.1,187.3,83.9,186.2,83.1z M43.9,75.6
			c0.5,1.1,0.8,2.1,6.7,6.9c-1.9,1.1-3.7,2.4-5.6,3.5c-1.9,1.1-2.7,2.7-2.7,4.5v44.6c-14.7-12.3-23.2-27-29.7-44.6
			c2.9-1.9,8.8-5.3,12.3-8c4.8-3.5,6.4-5.9,6.9-6.9c0.3-0.5,0.5-1.9,0-2.9C28.2,64.1,25,53.9,25,44.9c0-5.6,0-15.2,12.8-15.2
			c13.1,0,13.1,10.2,13.1,15.2c-0.3,9.9-3.5,19.2-6.9,27.8C43.1,74,43.7,75,43.9,75.6z M136,142.9c-14.5,8-27.7,10.5-41.9,10.7h-0.3
			c-14.2-0.1-27.4-2.6-41.9-10.7V93.2C64.5,85.5,77,76.9,87.7,66.8c0.8-0.8,0.3-2.9,0-3.7c-4.5-10.2-8-21.4-8-33.1
			c0-6,0-17.5,14.3-18.1c14.3,0.6,14.3,12.2,14.3,18.1c0,11.8-3.5,23-8,33.1c-0.3,0.8-0.8,2.9,0,3.7c10.7,10.2,23.2,18.7,35.8,26.5
			V142.9z M145.6,135.2V90.5c0-1.9-0.8-3.5-2.7-4.5c-1.9-1.1-3.7-2.4-5.6-3.5c5.9-4.8,6.1-5.9,6.7-6.9c0.3-0.5,0.8-1.6,0-2.9
			c-3.5-8.5-6.7-17.9-7-27.8c0-5.1,0-15.2,13.1-15.2c12.8,0,12.8,9.6,12.8,15.2c0,9.1-3.2,19.2-6.9,27.8c-0.5,1.1-0.3,2.4,0,2.9
			c0.5,1.1,2.1,3.5,6.9,6.9c3.5,2.7,9.3,6.2,12.3,8C168.9,108.2,160.3,122.9,145.6,135.2z"/>
	</g>
</g>
<g id="Слой_9">
	<path class="st1" d="M483.4,70.9c-1.3-2.6-2.8-5.2-4.9-7.2c-2.1-2.1-4.4-3.6-7-4.9c-2.9-1-5.7-1.6-8.8-1.6c-3.4,0-6.2,0.5-8.8,1.6
		c-2.8,1.3-5.2,2.8-7,4.9c-2.1,2.1-3.6,4.7-4.9,7.2c-1,2.8-1.5,5.9-1.5,9.1v46.1c0,3.1,0.5,6.2,1.5,8.8c1.3,2.9,2.9,5.2,4.9,7.2
		c1.8,2.1,4.1,3.6,7,4.7c2.6,1.3,5.4,1.8,8.8,1.8c3.1,0,6-0.5,8.8-1.8c2.6-1,4.9-2.6,7-4.7c2.1-2.1,3.6-4.4,4.9-7.2
		c1-2.6,1.8-5.7,1.8-8.8V80C485.2,76.9,484.4,73.8,483.4,70.9z M470.1,127.6c0,5.2-3.9,7.8-7.5,7.5c-3.9,0-7.5-2.6-7.5-7.5V78.4
		c0-4.4,3.6-6.7,7.5-6.7c3.6,0,7.5,2.3,7.5,6.7V127.6z"/>
</g>
<g id="Слой_8">
	<path class="st1" d="M433.4,50c0-12.9-7.8-23-22.3-22.8c-13,0.3-21,10.4-21,22.8v76.1c0,14.8,9.1,22.5,21,22.5
		c14,0,22.3-6.5,22.3-22.5v-23.3h-14.8c0,10.9,0,14.2,0,25.1c0,8.8-13.7,8.5-13.7,0c0-28.7,0-51,0-79.5c0.3-8.5,13.5-8.5,13.7,0
		v24.3h14.8V50z"/>
</g>
<g id="Слой_7">
	<path class="st1" d="M382.9,112.1V80c0-3.4-0.5-6.2-1.8-9.1c-1-2.9-2.6-5.2-4.7-7.2c-2.1-2.1-4.4-3.6-7.2-4.9
		c-2.6-1-5.7-1.6-8.8-1.6c-3.1,0-6,0.5-8.8,1.6c-2.6,1.3-4.9,2.8-7,4.9c-2.1,2.1-3.6,4.7-4.7,7.2c-1,2.8-1.8,5.9-1.8,9.1v46.1
		c0,3.1,0.8,6.2,1.8,8.8c1,2.9,2.6,5.2,4.7,7.2c2.1,2.1,4.4,3.6,7,4.7c2.9,1.3,5.7,1.8,8.8,1.8c3.1,0,6.2-0.5,8.8-1.8
		c2.8-1,5.2-2.6,7.2-4.7c2.1-2.1,3.6-4.4,4.7-7.2c1.3-2.6,1.8-5.7,1.8-8.8v-4.9h-15c0,5.2,0,0.8,0,5.7c0,5.2-3.6,7.8-7.5,7.5
		c-3.6,0-7.2-2.6-7.2-7.5v-14.8H382.9z M360.3,70.9c3.9,0,7.5,2.3,7.5,6.7v21.5h-14.8V77.7C352.8,73.3,356.7,70.9,360.3,70.9z"/>
</g>
<g id="Слой_6">
	<path class="st1" d="M330.3,147.8V58.2h-14.8v74.6c-0.8,0-1.6,0-2.3,0c-1.6,0-4.1,0.3-5.4,0c-6-0.3-7-4.9-7.3-11.7V58.2h-15v67.3
		c0,2.8,0.5,5.7,1.8,8.5c1.3,2.6,2.8,4.9,4.9,7c2.1,2.1,4.4,3.9,7.3,4.9c2.6,1.3,5.4,1.8,8.5,1.8H330.3z"/>
</g>
<g id="Слой_5">
	<path class="st1" d="M492.2,58.2v89.6h14.8V73c12.7-0.5,14.5,1.6,14.5,11.4v63.4h15.3V80.5c0-12.7-9.3-22.3-22.5-22.3H492.2z"/>
</g>
<g id="Слой_4">
	<path class="st1" d="M249.5,80.8v67.1h14.8V85.2c0-10.1,3.9-12.4,15-11.9v-15h-7.5c-2.8,0-6,0.5-8.5,1.8c-2.8,1-5.2,2.8-7,4.7
		c-1.8,2.1-3.6,4.4-4.9,7.2C250.3,74.8,249.5,77.7,249.5,80.8z"/>
</g>
<g id="Слой_3">
	<polygon class="st1" points="238.6,147.8 238.6,42.4 256.2,42.4 256.2,27.4 206,27.4 206,42.4 223.6,42.4 223.6,147.8 	"/>
</g>
<g id="Слой_2">
	<path class="st1" d="M561.6,147.8V72.5h9.8v-15h-9.8V51c0-6.5,2.6-8,8.5-8.5h6.2V27.7h-7.5c-3.1,0-6,0.5-8.8,1.8
		c-2.6,1-4.9,2.6-7,4.7c-2.1,2.1-3.6,4.4-4.7,7.3c-1,2.6-1.8,5.4-1.8,8.5v7.5h-7.3v15h7.3v75.4H561.6z"/>
</g>
</svg>
